/* XPM */
static char * bottom_right_inactive_xpm[] = {
"32 25 9 1",
" 	c None",
".	c #676767",
"+	c #FFFFFF s inactive_hilight_2",
"@	c #D7D7D8 s inactive_color_2",
"#	c #949495 s inactive_mid_2",
"=	c #636263 s inactive_shadow_2",
"$	c #418AB9 s inactive_hilight_1",
"&	c #056597 s inactive_color_1",
"%	c #062E46 s inactive_shadow_1",
"                          .+@#..",
"                          .+@#..",
"                          .+@#..",
"                          .+@#..",
"                          .+@#..",
"                          .+@#..",
"                          .+@#..",
"                          .+@#..",
"                          .+@#..",
"                          .+@#..",
"                          .+@#..",
"                          .+@#..",
"                          .+@#..",
"                          .+@#..",
"                          .+@#..",
"                          .+@#..",
"                          .+@#..",
"                          .+@#..",
"                          .+@#..",
"...........................+@#..",
".@++.$$&.@++.$$&.@++++++++++@#..",
".#@@.$&%.#@@.$&%.#@@@@@@@@@@@#..",
".=##.&%%.=##.&%%.=############..",
"................................",
"................................"};
