/* XPM */
static char * bottom_right_active_xpm[] = {
"32 25 9 1",
" 	c None",
".	c #000000",
"+	c #FFFFFF s active_hilight_2",
"@	c #D7D7D8 s active_color_2",
"#	c #949495 s active_mid_2",
"=	c #636263 s active_shadow_2",
"$	c #418AB9 s active_hilight_1",
"&	c #056597 s active_color_1",
"%	c #062E46 s active_shadow_1",
"                          .+@#..",
"                          .+@#..",
"                          .+@#..",
"                          .+@#..",
"                          .+@#..",
"                          .+@#..",
"                          .+@#..",
"                          .+@#..",
"                          .+@#..",
"                          .+@#..",
"                          .+@#..",
"                          .+@#..",
"                          .+@#..",
"                          .+@#..",
"                          .+@#..",
"                          .+@#..",
"                          .+@#..",
"                          .+@#..",
"                          .+@#..",
"...........................+@#..",
".#@+.$$&.#@+.$$&.#@+++++++++@#..",
".=#@.$&%.=#@.$&%.=#@@@@@@@@@@#..",
".==#.&%%.==#.&%%.==###########..",
"................................",
"................................"};
