/* XPM */
static char * bottom_inactive_xpm[] = {
"10 6 5 1",
" 	c None",
".	c #676767",
"+	c #418AB9 s inactive_hilight_1",
"@	c #056597 s inactive_color_1",
"#	c #062E46 s inactive_shadow_1",
"..........",
"++++++++++",
"@@@@@@@@@@",
"##########",
"..........",
".........."};
