/* XPM */
static char * left_active_xpm[] = {
"5 10 5 1",
" 	c None",
".	c #000000",
"+	c #418AB9 s active_hilight_1"
"@	c #056597 s active_color_1",
"#	c #062E46 s active_shadow_1",
".+@#.",
".+@#.",
".+@#.",
".+@#.",
".+@#.",
".+@#.",
".+@#.",
".+@#.",
".+@#.",
".+@#."};
