/* XPM */
static char * maximize_toggled_inactive_xpm[] = {
"14 14 6 1",
" 	c None",
".	c #636263 s inactive_shadow_2",
"+	c #FFFFFF s inactive_hilight_2",
"@	c #D7D7D8 s inactive_color_2",
"#	c #949495 s inactive_mid_2",
"$	c #676767",
"$$$$$$$$$$$$$$",
"$+++++++++++#$",
"$+@@@@@@@@@@.$",
"$+@@@@@@@@@@.$",
"$+@@$$$$@@@@.$",
"$+@@$$$$@@@@.$",
"$+@@$@@$$$@@.$",
"$+@@$$$$$$@@.$",
"$+@@@@$@@$@@.$",
"$+@@@@$$$$@@.$",
"$+@@@@@@@@@@.$",
"$+@@@@@@@@@@.$",
"$#...........$",
"$$$$$$$$$$$$$$"};
