/* XPM */
static char * menu_active_xpm[] = {
"14 14 6 1",
" 	c None",
".	c #000000",
"+	c #FFFFFF s active_hilight_2",
"@	c #418AB9 s active_hilight_1",
"#	c #056597 s active_color_1",
"$	c #062E46 s active_shadow_1",
"..............",
".+@@@@@@@@@@@.",
".@##########$.",
".@##########$.",
".@##########$.",
".@##########$.",
".@##########$.",
".@##########$.",
".@##########$.",
".@##########$.",
".@##########$.",
".@##########$.",
".@$$$$$$$$$$$.",
".............."};
