/* XPM */
static char * right_inactive_xpm[] = {
"6 10 5 1",
" 	c None",
".	c #676767",
"+	c #FFFFFF s inactive_hilight_2",
"@	c #D7D7D8 s inactive_color_2",
"#	c #949495 s inactive_mid_2",
".+@#..",
".+@#..",
".+@#..",
".+@#..",
".+@#..",
".+@#..",
".+@#..",
".+@#..",
".+@#..",
".+@#.."};
