/* XPM */
static char * shade_active_xpm[] = {
"14 14 6 1",
" 	c None",
".	c #636263 s active_shadow_2",
"+	c #FFFFFF s active_hilight_2",
"@	c #D7D7D8 s active_color_2",
"#	c #949495 s active_mid_2",
"$	c #000000",
"$$$$$$$$$$$$$$",
"$+++++++++++#$",
"$+@@@@@@@@@@.$",
"$+@@@@@@@@@@.$",
"$+@@$$$$$$@@.$",
"$+@@$$$$$$@@.$",
"$+@@@@@@@@@@.$",
"$+@@@@@@@@@@.$",
"$+@@@@@@@@@@.$",
"$+@@@@@@@@@@.$",
"$+@@@@@@@@@@.$",
"$+@@@@@@@@@@.$",
"$#...........$",
"$$$$$$$$$$$$$$"};
