/* XPM */
static char * title_5_inactive_xpm[] = {
"10 22 6 1",
" 	c None",
".	c #676767",
"@	c #FFFFFF s inactive_hilight_2",
"+	c #D7D7D8 s inactive_color_2",
"=	c #949495 s inactive_mid_2"
"$	c #636263 s inactive_shadow_2",
"..........",
"@@@@@@@@@@",
"++++++++++",
"++++++++++",
"++++++++++",
"++++++++++",
"++++++++++",
"++++++++++",
"++++++++++",
"++++++++++",
"++++++++++",
"++++++++++",
"++++++++++",
"++++++++++",
"++++++++++",
"++++++++++",
"++++++++++",
"++++++++++",
"++++++++++",
"==========",
"$$$$$$$$$$",
".........."};
