/* XPM */
static char * title_2_inactive_xpm[] = {
"10 22 5 1",
" 	c None",
".	c #676767",
"+	c #056597 s inactive_color_1",
"@	c #418AB9 s inactive_hilight_1",
"$	c #062E46 s inactive_shadow_1",
"..........",
"@@@@@@@@@@",
"++++++++++",
"++++++++++",
"++++++++++",
"++++++++++",
"++++++++++",
"++++++++++",
"++++++++++",
"++++++++++",
"++++++++++",
"++++++++++",
"++++++++++",
"++++++++++",
"++++++++++",
"++++++++++",
"++++++++++",
"++++++++++",
"++++++++++",
"++++++++++",
"$$$$$$$$$$",
".........."};
