/* XPM */
static char * top_left_inactive_xpm[] = {
"5 22 6 1",
" 	c None",
".	c #676767",
"+	c #FFFFFF s inactive_hilight_2",
"@	c #418AB9 s inactive_hilight_1",
"#	c #056597 s inactive_color_1",
"%	c #062E46 s inactive_shadow_1",
".....",
".@@@@",
".@###",
".@###",
".@###",
".@###",
".@###",
".@###",
".@###",
".@###",
".@###",
".@###",
".@###",
".@###",
".@###",
".@###",
".@###",
".@###",
".@###",
".@###",
".@##%",
".@#%."};
